<svg width="1454" height="983" viewBox="0 0 1454 980" fill="none" xmlns="http://www.w3.org/2000/svg">
<path d="M1303.24 618.37V857.53C1303.24 903.91 1265.62 941.15 1219.24 941.15H131V842H1182.72C1194.31 842 1203.72 832.59 1203.72 821V654.89C1203.72 643.28 1194.31 633.89 1182.72 633.89H1101.63C1055.23 633.89 1017.63 596.27 1017.63 549.89V274.51C1017.63 262.9 1008.22 253.51 996.63 253.51H677.12C665.51 253.51 656.12 262.9 656.12 274.51V498.52H556.59V237.99C556.59 191.59 594.19 153.99 640.59 153.99H1033.15C1079.53 153.99 1117.15 191.59 1117.15 237.99V513.37C1117.15 524.96 1126.54 534.37 1138.15 534.37H1219.24C1265.62 534.37 1303.24 571.97 1303.24 618.37Z" fill="#FF4851"/>
<path d="M1454 768V982.05H1355V804.54C1355 792.95 1345.05 783.54 1333.46 783.54H983.28C936.88 783.54 899.28 745.92 899.28 699.54V400.95C899.28 389.34 889.87 379.95 878.28 379.95H796.25C784.66 379.95 775.25 389.36 775.25 400.95V741C775.25 787.4 737.65 825 691.25 825H304.37C257.97 825 220.37 787.38 220.37 741V484.35H319.9V704.46C319.9 716.05 329.29 725.46 340.9 725.46H654.71C666.3 725.46 675.71 716.05 675.71 704.46V364.22C675.71 317.82 713.31 280.22 759.71 280.22H775.25L914.8 280.43C961.18 280.43 998.8 318.03 998.8 364.43V663C998.8 674.59 1008.19 684 1019.8 684H1370C1416.38 684 1454 721.6 1454 768Z" fill="white"/>
<path d="M436.33 267.831C418.32 267.921 401.16 269.431 386.04 272.111C341.5 280.001 333.44 296.451 333.44 326.811V366.931H438.69V380.301H293.94C263.36 380.301 236.57 398.671 228.18 433.661C218.55 473.741 218.1 498.751 228.18 540.611C235.67 571.731 253.55 593.97 284.13 593.97H320.33V545.871C320.33 511.141 350.38 480.521 386.09 480.521H491.21C520.45 480.521 543.81 456.451 543.81 427.021V326.801C543.81 298.271 519.74 276.871 491.21 272.101C473.11 269.111 454.39 267.731 436.38 267.821H436.34L436.33 267.831ZM379.4 300.071C390.28 300.071 399.15 309.081 399.15 320.181C399.15 331.281 390.28 340.151 379.4 340.151C368.52 340.151 359.65 331.191 359.65 320.181C359.65 309.171 368.48 300.071 379.4 300.071Z" fill="white"/>
<path d="M556.92 380.311V427.031C556.92 463.271 526.2 493.771 491.16 493.771H386.04C357.24 493.771 333.44 518.421 333.44 547.271V647.491C333.44 676.021 358.23 692.781 386.04 700.991C419.34 710.751 451.3 712.541 491.16 700.991C517.64 693.281 543.76 677.851 543.76 647.491V607.371H438.64V594.001H596.36C626.94 594.001 638.35 572.651 648.96 540.641C659.93 507.651 659.48 475.951 648.96 433.691C641.38 403.241 626.98 380.331 596.36 380.331H556.86H556.9L556.92 380.311ZM497.76 634.061C508.68 634.061 517.51 643.021 517.51 654.031C517.51 665.041 508.68 674.181 497.76 674.181C486.84 674.181 478.01 665.171 478.01 654.031C478.01 642.891 486.88 634.061 497.76 634.061Z" fill="#FF4851"/>
<g clip-path="url(#clip0_815_2)">
<path d="M1217.55 525.285L1213.46 532.949L1185.21 491.729C1185.21 491.729 1183.62 488.948 1184.36 485.325C1184.58 484.21 1185.05 482.272 1185.6 480.106C1185.6 480.106 1191.26 490.823 1195.43 496.504C1199.6 502.184 1217.55 525.285 1217.55 525.285Z" fill="#F7D408"/>
<path d="M1221.39 518.083L1217.55 525.276C1217.55 525.276 1199.6 502.175 1195.43 496.494C1191.26 490.814 1185.6 480.097 1185.6 480.097C1186.84 475.196 1188.48 469.172 1188.48 469.172C1188.48 469.172 1188.98 474.553 1192.49 480.233C1196.01 485.913 1201.33 493.677 1204.64 497.862C1207.95 502.048 1221.39 518.083 1221.39 518.083Z" fill="#1D66DB"/>
<path d="M1211.29 472.922C1210.79 474.788 1210.18 476.745 1209.56 477.75C1209.56 477.75 1205.6 475.757 1200.81 475.757C1196.01 475.757 1192.5 478.348 1192.5 478.348C1192.5 478.348 1191.29 475.712 1190.33 472.922C1190.33 472.922 1194.74 469.651 1200.81 469.651C1206.87 469.651 1211.29 472.922 1211.29 472.922Z" fill="#F7D408"/>
<path d="M1212.37 468.284C1212.37 468.284 1211.93 470.54 1211.29 472.922C1211.29 472.922 1206.87 469.652 1200.81 469.652C1194.74 469.652 1190.33 472.922 1190.33 472.922C1189.75 471.246 1189.27 469.516 1189.19 468.284C1189.19 468.284 1193.96 464.497 1200.81 464.497C1207.65 464.497 1212.37 468.284 1212.37 468.284Z" fill="#1D66DB"/>
<path d="M1216.15 480.233C1214.58 484.246 1206.56 494.891 1205.22 496.648L1201.42 491.792C1201.42 491.792 1206.64 484.219 1209.25 480.133C1211.86 476.048 1212.96 469.181 1212.96 469.181C1214.48 473.448 1215.5 477.162 1216.15 480.233Z" fill="#1D66DB"/>
<path d="M1217.08 490.198C1216.67 491.195 1214.87 494.085 1214.87 494.085L1209.45 502.057L1205.25 496.685L1205.22 496.657C1206.55 494.9 1214.58 484.255 1216.15 480.242C1217.39 486.049 1217.34 489.555 1217.08 490.207V490.198Z" fill="#F7D408"/>
<path d="M1196.07 509.603L1183.69 525.284L1179.85 518.245L1191.89 503.542L1196.07 509.603Z" fill="#1D66DB"/>
<path d="M1199.92 515.192L1187.88 532.948L1183.69 525.284L1196.07 509.603L1199.92 515.192Z" fill="#F7D408"/>
</g>
<path d="M754.466 445.773C754.466 452.517 752.148 458.269 747.51 463.012C742.873 467.755 737.343 470.134 730.919 470.134H702.014V496.67H685.172V420.529H731.781C739.05 420.529 744.784 423.318 748.999 428.912C752.633 433.766 754.451 439.391 754.451 445.773H754.466ZM735.494 444.78C735.494 441.518 734.288 438.808 731.891 436.618C729.494 434.443 726.736 433.356 723.619 433.356H701.92V456.961H724.104C727.285 456.961 729.979 455.811 732.173 453.494C734.382 451.162 735.478 448.263 735.478 444.78H735.494ZM810.428 440.321L810.334 499.049C810.334 501.507 809.88 503.745 808.971 505.731C808.062 507.732 806.856 509.481 805.368 511.009C803.096 513.184 800.762 514.665 798.365 515.469C795.968 516.272 793.069 516.666 789.701 516.666H763.224V504.911H790.766C792.004 504.911 793.163 504.438 794.276 503.493C795.764 502.201 796.516 500.672 796.516 498.923V496.749H780.943C777.967 496.749 775.428 496.371 773.345 495.598C771.261 494.842 769.256 493.377 767.313 491.186C763.866 487.42 762.159 482.74 762.159 477.162V440.289H776.368L776.274 476.406C776.274 477.855 776.353 478.943 776.509 479.667C776.666 480.392 777.12 481.196 777.872 482.063C778.624 482.929 779.47 483.528 780.457 483.859C781.429 484.19 782.635 484.347 784.061 484.347H796.422V440.289H810.428V440.321ZM875.978 496.67H845.913C842.858 496.67 839.85 496.197 836.858 495.252C831.092 493.298 826.502 488.791 823.134 481.763C820.079 475.381 818.559 467.944 818.559 459.466C818.559 450.989 819.922 444.024 822.648 437.721C825.625 430.756 829.886 426.013 835.401 423.46C839.678 421.506 844.064 420.529 848.545 420.529H875.79V435.105H847.464C842.858 435.105 839.521 437.894 837.437 443.488C835.808 447.837 835.009 453.526 835.009 460.554C835.009 466.494 836.043 471.552 838.127 475.681C840.524 480.534 843.908 482.961 848.247 482.961L875.978 482.85V496.67ZM940.352 468.275C940.352 478.076 937.563 485.577 931.986 490.792C926.863 495.583 919.891 497.962 911.071 497.962C902.251 497.962 895.404 495.787 890.548 491.438C884.908 486.427 882.088 478.643 882.088 468.038C882.088 459.198 885.127 452.234 891.237 447.16C896.689 442.59 903.41 440.305 911.384 440.305C920.142 440.305 927.161 442.763 932.456 447.648C937.751 452.549 940.383 459.419 940.383 468.275H940.352ZM925.265 468.18C925.265 463.611 923.98 459.781 921.427 456.709C918.857 453.62 915.379 452.092 910.961 452.092C906.935 452.092 903.614 453.667 900.982 456.819C898.365 459.986 897.034 463.941 897.034 468.732C897.034 474.231 898.365 478.627 901.029 481.889C903.692 485.151 907.123 486.774 911.353 486.774C916.147 486.774 919.719 485.072 922.053 481.653C924.2 478.549 925.265 474.042 925.265 468.18ZM995.06 496.67H981.54V459.577C981.54 458.631 981.336 457.78 980.96 457.024C980.569 456.267 980.02 455.527 979.3 454.802C977.999 453.573 976.511 452.958 974.819 452.958H961.581V496.686H948.044V440.337H973.926C978.532 440.337 981.869 440.62 983.953 441.203C987.196 442.086 989.796 443.992 991.739 446.971C993.932 450.453 995.045 454.266 995.045 458.395V496.686H995.06V496.67Z" fill="#FF4851"/>
<path d="M1099.21 429.053C1095 423.475 1089.26 420.686 1081.99 420.686H1035.37V496.826H1052.21V470.29H1081.12C1087.54 470.29 1093.07 467.911 1097.71 463.168C1102.34 458.409 1104.66 452.673 1104.66 445.929C1104.66 439.547 1102.85 433.922 1099.21 429.069V429.053ZM1082.39 453.635C1080.19 455.951 1077.48 457.117 1074.32 457.117H1052.12V433.512H1073.82C1076.93 433.512 1079.69 434.599 1082.09 436.774C1084.48 438.964 1085.69 441.675 1085.69 444.936C1085.69 448.419 1084.59 451.318 1082.39 453.65V453.635Z" fill="white"/>
<path d="M1165.5 496.811H1141.76C1134.82 496.811 1129.26 495.897 1125.06 494.084C1119.75 491.768 1115.93 487.781 1113.62 482.124C1112.75 479.95 1112.12 477.886 1111.74 475.932C1111.43 473.899 1111.27 471.583 1111.27 468.967V420.67H1128.16V468.305C1128.16 470.48 1128.38 472.402 1128.82 474.072C1129.26 475.664 1130.04 477.255 1131.17 478.863C1132.74 481.179 1134.56 482.707 1136.61 483.432C1138.66 484.157 1141.29 484.52 1144.49 484.52H1165.5V496.811Z" fill="white"/>
<path d="M0.00076413 861L6.79306e-07 0L98.9999 1.18056e-06L99.0006 822C99.0006 833.046 107.955 842 119.001 842L401.5 842L401.5 941L80.0008 941C35.818 941 0.000803307 905.183 0.00076413 861Z" fill="#FF4851"/>
<defs>
<clipPath id="clip0_815_2">
<rect width="41.6127" height="68.4876" fill="white" transform="translate(1179.82 464.479)"/>
</clipPath>
</defs>
</svg>
